<svg width="25" height="25" viewBox="0 0 25 25" fill="none" xmlns="http://www.w3.org/2000/svg">
<path fill-rule="evenodd" clip-rule="evenodd" d="M18.217 5.29999H7.01699C6.13699 5.29999 5.41699 6.01999 5.41699 6.89999V18.1C5.41699 18.98 6.13699 19.7 7.01699 19.7H18.217C19.097 19.7 19.817 18.98 19.817 18.1V6.89999C19.817 6.01999 19.097 5.29999 18.217 5.29999ZM11.585 15.932C11.273 16.244 10.769 16.244 10.457 15.932L7.58499 13.06C7.43519 12.9105 7.351 12.7076 7.351 12.496C7.351 12.2844 7.43519 12.0815 7.58499 11.932C7.89699 11.62 8.40099 11.62 8.71299 11.932L11.017 14.236L16.521 8.73199C16.833 8.41999 17.337 8.41999 17.649 8.73199C17.961 9.04399 17.961 9.54799 17.649 9.85999L11.585 15.932Z" fill="#C3CAD9"/>
</svg>
