<svg width="19" height="19" viewBox="0 0 19 19" fill="none" xmlns="http://www.w3.org/2000/svg">
<path fill-rule="evenodd" clip-rule="evenodd" d="M9.61703 0.166656C4.46503 0.166656 0.283691 4.34799 0.283691 9.49999C0.283691 14.652 4.46503 18.8333 9.61703 18.8333C14.769 18.8333 18.9504 14.652 18.9504 9.49999C18.9504 4.34799 14.769 0.166656 9.61703 0.166656ZM13.3504 10.4333H10.5504V13.2333C10.5504 13.7467 10.1304 14.1667 9.61702 14.1667C9.10369 14.1667 8.68369 13.7467 8.68369 13.2333V10.4333H5.88369C5.37036 10.4333 4.95036 10.0133 4.95036 9.49999C4.95036 8.98666 5.37036 8.56666 5.88369 8.56666H8.68369V5.76666C8.68369 5.25332 9.10369 4.83332 9.61702 4.83332C10.1304 4.83332 10.5504 5.25332 10.5504 5.76666V8.56666H13.3504C13.8637 8.56666 14.2837 8.98666 14.2837 9.49999C14.2837 10.0133 13.8637 10.4333 13.3504 10.4333Z" fill="#C3CAD9"/>
</svg>
