<svg width="20" height="12" viewBox="0 0 20 12" fill="none" xmlns="http://www.w3.org/2000/svg">
<path fill-rule="evenodd" clip-rule="evenodd" d="M13.4502 5.16669C14.8335 5.16669 15.9419 4.05002 15.9419 2.66669C15.9419 1.28335 14.8335 0.166687 13.4502 0.166687C12.0669 0.166687 10.9502 1.28335 10.9502 2.66669C10.9502 4.05002 12.0669 5.16669 13.4502 5.16669ZM6.78353 5.16669C8.16686 5.16669 9.27519 4.05002 9.27519 2.66669C9.27519 1.28335 8.16686 0.166687 6.78353 0.166687C5.4002 0.166687 4.28353 1.28335 4.28353 2.66669C4.28353 4.05002 5.4002 5.16669 6.78353 5.16669ZM6.78353 6.83335C4.84186 6.83335 0.950195 7.80835 0.950195 9.75002V11C0.950195 11.4584 1.3252 11.8334 1.78353 11.8334H11.7835C12.2419 11.8334 12.6169 11.4584 12.6169 11V9.75002C12.6169 7.80835 8.7252 6.83335 6.78353 6.83335ZM13.4502 6.83335C13.2085 6.83335 12.9335 6.85002 12.6419 6.87502C12.6585 6.88335 12.6669 6.90002 12.6752 6.90835C13.6252 7.60002 14.2835 8.52502 14.2835 9.75002V11C14.2835 11.2917 14.2252 11.575 14.1335 11.8334H18.4502C18.9085 11.8334 19.2835 11.4584 19.2835 11V9.75002C19.2835 7.80835 15.3919 6.83335 13.4502 6.83335Z" fill="#C3CAD9"/>
</svg>
